{
    "asset": {
        "copyright": "2019 (c) Adobe Inc.",
        "generator": "Adobe Dimension - 5382d06ef3602aa2463810b9e9409e51e1d3a5e7",
        "version": "2.0"
    },
    "accessors": [
        {
            "bufferView": 0,
            "componentType": 5126,
            "count": 22202,
            "type": "VEC3",
            "max": [
                0.9809443354606628,
                1.0221298933029175,
                1.4283748865127564
            ],
            "min": [
                -0.8216659426689148,
                0.0015843699220567942,
                -0.46063709259033205
            ]
        },
        {
            "bufferView": 1,
            "componentType": 5126,
            "count": 22202,
            "type": "VEC3"
        },
        {
            "bufferView": 2,
            "componentType": 5126,
            "count": 22202,
            "type": "VEC2"
        },
        {
            "bufferView": 3,
            "componentType": 5125,
            "count": 131337,
            "type": "SCALAR",
            "max": [
                22201.0
            ],
            "min": [
                0.0
            ]
        },
        {
            "bufferView": 4,
            "componentType": 5126,
            "count": 24,
            "type": "VEC3",
            "max": [
                0.09999999403953552,
                0.19999998807907105,
                0.09999999403953552
            ],
            "min": [
                -0.09999999403953552,
                0.0,
                -0.09999999403953552
            ]
        },
        {
            "bufferView": 5,
            "componentType": 5126,
            "count": 24,
            "type": "VEC3"
        },
        {
            "bufferView": 6,
            "componentType": 5126,
            "count": 24,
            "type": "VEC2"
        },
        {
            "bufferView": 7,
            "componentType": 5125,
            "count": 36,
            "type": "SCALAR",
            "max": [
                23.0
            ],
            "min": [
                0.0
            ]
        },
        {
            "bufferView": 8,
            "componentType": 5126,
            "count": 3719,
            "type": "VEC3",
            "max": [
                0.09999999403953552,
                0.19999998807907105,
                0.10000000894069672
            ],
            "min": [
                -0.1000000387430191,
                0.0,
                -0.1000000536441803
            ]
        },
        {
            "bufferView": 9,
            "componentType": 5126,
            "count": 3719,
            "type": "VEC3"
        },
        {
            "bufferView": 10,
            "componentType": 5126,
            "count": 3719,
            "type": "VEC2"
        },
        {
            "bufferView": 11,
            "componentType": 5125,
            "count": 21240,
            "type": "SCALAR",
            "max": [
                3718.0
            ],
            "min": [
                0.0
            ]
        },
        {
            "bufferView": 12,
            "componentType": 5126,
            "count": 18,
            "type": "VEC3",
            "max": [
                0.11551520228385925,
                0.19949756562709809,
                0.09999998658895493
            ],
            "min": [
                -0.05768987908959389,
                -0.0005024200072512031,
                -0.10000000894069672
            ]
        },
        {
            "bufferView": 13,
            "componentType": 5126,
            "count": 18,
            "type": "VEC3"
        },
        {
            "bufferView": 14,
            "componentType": 5126,
            "count": 18,
            "type": "VEC2"
        },
        {
            "bufferView": 15,
            "componentType": 5125,
            "count": 24,
            "type": "SCALAR",
            "max": [
                17.0
            ],
            "min": [
                0.0
            ]
        },
        {
            "bufferView": 16,
            "componentType": 5126,
            "count": 4649,
            "type": "VEC3",
            "max": [
                0.036527108401060107,
                0.0958651453256607,
                0.036527119576931
            ],
            "min": [
                -0.03652709722518921,
                0.00018495001131668687,
                -0.036527108401060107
            ]
        },
        {
            "bufferView": 17,
            "componentType": 5126,
            "count": 4649,
            "type": "VEC3"
        },
        {
            "bufferView": 18,
            "componentType": 5126,
            "count": 4649,
            "type": "VEC2"
        },
        {
            "bufferView": 19,
            "componentType": 5125,
            "count": 26208,
            "type": "SCALAR",
            "max": [
                4648.0
            ],
            "min": [
                0.0
            ]
        },
        {
            "bufferView": 20,
            "componentType": 5126,
            "count": 2419,
            "type": "VEC3",
            "max": [
                0.035193100571632388,
                0.04830985143780708,
                0.03519304841756821
            ],
            "min": [
                -0.035193201154470447,
                0.0028415799606591465,
                -0.035193268209695819
            ]
        },
        {
            "bufferView": 21,
            "componentType": 5126,
            "count": 2419,
            "type": "VEC3"
        },
        {
            "bufferView": 22,
            "componentType": 5126,
            "count": 2419,
            "type": "VEC2"
        },
        {
            "bufferView": 23,
            "componentType": 5125,
            "count": 13248,
            "type": "SCALAR",
            "max": [
                2418.0
            ],
            "min": [
                0.0
            ]
        }
    ],
    "bufferViews": [
        {
            "buffer": 0,
            "byteOffset": 0,
            "byteLength": 266424,
            "target": 34962
        },
        {
            "buffer": 0,
            "byteOffset": 266424,
            "byteLength": 266424,
            "target": 34962
        },
        {
            "buffer": 0,
            "byteOffset": 532848,
            "byteLength": 177616,
            "target": 34962
        },
        {
            "buffer": 0,
            "byteOffset": 710464,
            "byteLength": 525348,
            "target": 34963
        },
        {
            "buffer": 0,
            "byteOffset": 1235812,
            "byteLength": 288,
            "target": 34962
        },
        {
            "buffer": 0,
            "byteOffset": 1236100,
            "byteLength": 288,
            "target": 34962
        },
        {
            "buffer": 0,
            "byteOffset": 1236388,
            "byteLength": 192,
            "target": 34962
        },
        {
            "buffer": 0,
            "byteOffset": 1236580,
            "byteLength": 144,
            "target": 34963
        },
        {
            "buffer": 0,
            "byteOffset": 1236724,
            "byteLength": 44628,
            "target": 34962
        },
        {
            "buffer": 0,
            "byteOffset": 1281352,
            "byteLength": 44628,
            "target": 34962
        },
        {
            "buffer": 0,
            "byteOffset": 1325980,
            "byteLength": 29752,
            "target": 34962
        },
        {
            "buffer": 0,
            "byteOffset": 1355732,
            "byteLength": 84960,
            "target": 34963
        },
        {
            "buffer": 0,
            "byteOffset": 1440692,
            "byteLength": 216,
            "target": 34962
        },
        {
            "buffer": 0,
            "byteOffset": 1440908,
            "byteLength": 216,
            "target": 34962
        },
        {
            "buffer": 0,
            "byteOffset": 1441124,
            "byteLength": 144,
            "target": 34962
        },
        {
            "buffer": 0,
            "byteOffset": 1441268,
            "byteLength": 96,
            "target": 34963
        },
        {
            "buffer": 0,
            "byteOffset": 1441364,
            "byteLength": 55788,
            "target": 34962
        },
        {
            "buffer": 0,
            "byteOffset": 1497152,
            "byteLength": 55788,
            "target": 34962
        },
        {
            "buffer": 0,
            "byteOffset": 1552940,
            "byteLength": 37192,
            "target": 34962
        },
        {
            "buffer": 0,
            "byteOffset": 1590132,
            "byteLength": 104832,
            "target": 34963
        },
        {
            "buffer": 0,
            "byteOffset": 1694964,
            "byteLength": 29028,
            "target": 34962
        },
        {
            "buffer": 0,
            "byteOffset": 1723992,
            "byteLength": 29028,
            "target": 34962
        },
        {
            "buffer": 0,
            "byteOffset": 1753020,
            "byteLength": 19352,
            "target": 34962
        },
        {
            "buffer": 0,
            "byteOffset": 1772372,
            "byteLength": 52992,
            "target": 34963
        }
    ],
    "buffers": [
        {
            "byteLength": 1825364,
            "uri": "transparency_test3_binary.bin"
        }
    ],
    "cameras": [
        {
            "perspective": {
                "znear": 0.00005606882768915966,
                "yfov": 0.6024156808853149,
                "zfar": 3.0837855339050295,
                "aspectRatio": 1.3333333730697632
            },
            "type": "perspective",
            "extras": {
                "ADOBE_camera_extras": {
                    "isDefaultCamera": false,
                    "isWorkingCamera": true
                }
            },
            "name": "render_camera"
        }
    ],
    "images": [
        {
            "name": "stripes_01",
            "uri": "transparency_test3_images/stripes_01.jpg",
            "mimeType": "image/jpeg"
        },
        {
            "name": "basecolor_image_texture",
            "uri": "transparency_test3_images/basecolor_image_texture.jpg",
            "mimeType": "image/jpeg"
        },
        {
            "name": "roughness_image_texture_metallic_image_texture_2",
            "uri": "transparency_test3_images/roughness_image_texture_metallic_image_texture_2.jpg",
            "mimeType": "image/jpeg"
        },
        {
            "name": "normal_image_texture",
            "uri": "transparency_test3_images/normal_image_texture.png",
            "mimeType": "image/png"
        },
        {
            "name": "Gradient1",
            "uri": "transparency_test3_images/Gradient1.jpg",
            "mimeType": "image/jpeg"
        }
    ],
    "materials": [
        {
            "pbrMetallicRoughness": {
                "baseColorTexture": {
                    "index": 0
                },
                "metallicFactor": 0.0,
                "roughnessFactor": 0.4934999942779541
            },
            "name": "Cloth Backdrop",
            "doubleSided": true
        },
        {
            "pbrMetallicRoughness": {
                "baseColorFactor": [
                    0.9899994134902954,
                    1.0,
                    1.0,
                    1.0
                ],
                "metallicFactor": 0.0,
                "roughnessFactor": 0.0
            },
            "alphaMode": "BLEND",
            "name": "Glass 3",
            "extensions": {
                "ADOBE_materials_thin_transparency": {
                    "ior": 1.5800000429153443,
                    "transmissionFactor": 1,
                    "density": 0.10000000149011612,
                    "interiorColor": [
                        0.13333334028720857,
                        0.4980392158031464,
                        0.7058823704719544
                    ]
                }
            },
            "extras": {
                "ADOBE_transparency": {
                    
                }
            }
        },
        {
            "pbrMetallicRoughness": {
                "baseColorFactor": [
                    1.0,
                    0.854263961315155,
                    0.3094690442085266,
                    1.0
                ],
                "metallicFactor": 0.0,
                "roughnessFactor": 0.07999999821186066
            },
            "alphaMode": "BLEND",
            "name": "Beer",
            "extensions": {
                "ADOBE_materials_thin_transparency": {
                    "ior": 1.600000023841858,
                    "transmissionFactor": 1,
                    "density": 0.009999999776482582,
                    "interiorColor": [
                        0.45490145683288576,
                        0.14442667365074159,
                        0
                    ]
                }
            },
            "extras": {
                "ADOBE_transparency": {
                    
                }
            }
        },
        {
            "pbrMetallicRoughness": {
                "baseColorTexture": {
                    "index": 1
                },
                "metallicRoughnessTexture": {
                    "index": 2
                }
            },
            "normalTexture": {
                "index": 3
            },
            "name": "Cardboard",
            "doubleSided": true
        },
        {
            "pbrMetallicRoughness": {
                "metallicFactor": 0.0,
                "roughnessFactor": 0.0
            },
            "alphaMode": "BLEND",
            "name": "glass_Mat",
            "extensions": {
                "ADOBE_materials_thin_transparency": {
                    "ior": 1.600000023841858,
                    "transmissionFactor": 1
                }
            }
        },
        {
            "pbrMetallicRoughness": {
                "baseColorFactor": [
                    0.5840358734130859,
                    0.08687649667263031,
                    0.08687649667263031,
                    1.0
                ],
                "metallicFactor": 0.0,
                "roughnessFactor": 0.0
            },
            "alphaMode": "BLEND",
            "name": "wine_Mat",
            "extensions": {
                "ADOBE_materials_thin_transparency": {
                    "ior": 1.600000023841858,
                    "transmissionFactor": 1,
                    "density": 0.15000000596046449,
                    "interiorColor": [
                        0.9063317179679871,
                        0.5838314890861511,
                        0.5838314890861511
                    ]
                }
            },
            "extras": {
                "ADOBE_transparency": {
                    
                }
            }
        }
    ],
    "meshes": [
        {
            "name": "cloth_backdrop_01_N3D",
            "primitives": [
                {
                    "attributes": {
                        "POSITION": 0,
                        "NORMAL": 1,
                        "TEXCOORD_0": 2
                    },
                    "indices": 3,
                    "material": 0
                }
            ]
        },
        {
            "name": "MODEL_CUBE_PART_1_N3D",
            "primitives": [
                {
                    "attributes": {
                        "TEXCOORD_0": 6,
                        "NORMAL": 5,
                        "POSITION": 4
                    },
                    "indices": 7,
                    "material": 1
                }
            ]
        },
        {
            "name": "sphere_N3D",
            "primitives": [
                {
                    "attributes": {
                        "POSITION": 8,
                        "NORMAL": 9,
                        "TEXCOORD_0": 10
                    },
                    "indices": 11,
                    "material": 2
                }
            ]
        },
        {
            "name": "MODEL_PRISM_PART_1_N3D",
            "primitives": [
                {
                    "attributes": {
                        "POSITION": 12,
                        "NORMAL": 13,
                        "TEXCOORD_0": 14
                    },
                    "indices": 15,
                    "material": 3
                }
            ]
        },
        {
            "name": "b_wine_glass_2_125_glass_N3D",
            "primitives": [
                {
                    "attributes": {
                        "TEXCOORD_0": 18,
                        "NORMAL": 17,
                        "POSITION": 16
                    },
                    "indices": 19,
                    "material": 4
                }
            ]
        },
        {
            "name": "b_wine_glass_2_125_wine_N3D",
            "primitives": [
                {
                    "attributes": {
                        "TEXCOORD_0": 22,
                        "NORMAL": 21,
                        "POSITION": 20
                    },
                    "indices": 23,
                    "material": 5
                }
            ]
        },
        {
            "name": "b_wine_glass_2_125_glass_N3D2",
            "primitives": [
                {
                    "attributes": {
                        "TEXCOORD_0": 18,
                        "NORMAL": 17,
                        "POSITION": 16
                    },
                    "indices": 19,
                    "material": 4
                }
            ]
        },
        {
            "name": "b_wine_glass_2_125_wine_N3D2",
            "primitives": [
                {
                    "attributes": {
                        "TEXCOORD_0": 22,
                        "NORMAL": 21,
                        "POSITION": 20
                    },
                    "indices": 23,
                    "material": 5
                }
            ]
        },
        {
            "name": "b_wine_glass_2_125_glass_N3D3",
            "primitives": [
                {
                    "attributes": {
                        "POSITION": 16,
                        "NORMAL": 17,
                        "TEXCOORD_0": 18
                    },
                    "indices": 19,
                    "material": 4
                }
            ]
        },
        {
            "name": "b_wine_glass_2_125_wine_N3D3",
            "primitives": [
                {
                    "attributes": {
                        "POSITION": 20,
                        "NORMAL": 21,
                        "TEXCOORD_0": 22
                    },
                    "indices": 23,
                    "material": 5
                }
            ]
        }
    ],
    "nodes": [
        {
            "translation": [
                0.3453787863254547,
                0.5112481713294983,
                0.8601261973381043
            ],
            "rotation": [
                -0.17789265513420106,
                -0.024663351476192476,
                -0.004459993448108435,
                0.983730673789978
            ],
            "camera": 0,
            "name": "render_camera_n3d"
        },
        {
            "name": "ground_plane_n3d",
            "extras": {
                "ADOBE_ground_plane": {
                    "reflectionFresnel": 0,
                    "reflectionOpacity": 0,
                    "reflectionRoughness": 0,
                    "shadowOpacity": 1
                }
            }
        },
        {
            "mesh": 0,
            "name": "Cloth Backdrop 01"
        },
        {
            "translation": [
                0.31746700406074526,
                0.11052240431308747,
                0.1871356964111328
            ],
            "rotation": [
                0.0,
                0.04361938312649727,
                0.0,
                0.9990482330322266
            ],
            "mesh": 1,
            "name": "Cube"
        },
        {
            "translation": [
                0.558429479598999,
                0.11207179725170136,
                0.25062939524650576
            ],
            "mesh": 2,
            "name": "OuterSphere"
        },
        {
            "translation": [
                0.33496540784835818,
                0.0652475357055664,
                0.18735021352767945
            ],
            "rotation": [
                0.0,
                0.22495105862617494,
                0.0,
                0.9743700623512268
            ],
            "mesh": 3,
            "name": "Prism"
        },
        {
            "children": [
                7,
                8
            ],
            "translation": [
                0.2999204099178314,
                0.3052769899368286,
                0.12218776345252991
            ],
            "name": "b_wine_glass_2_125"
        },
        {
            "mesh": 4,
            "name": "b_wine_glass_2_125_glass"
        },
        {
            "mesh": 5,
            "name": "b_wine_glass_2_125_wine"
        },
        {
            "children": [
                10,
                11
            ],
            "translation": [
                0.3769480884075165,
                0.3052769899368286,
                0.20418044924736024
            ],
            "name": "b_wine_glass_2_125"
        },
        {
            "mesh": 6,
            "name": "b_wine_glass_2_125_glass"
        },
        {
            "mesh": 7,
            "name": "b_wine_glass_2_125_wine"
        },
        {
            "children": [
                13,
                14
            ],
            "translation": [
                0.2755677103996277,
                0.3052769899368286,
                0.20986860990524293
            ],
            "name": "b_wine_glass_2_125"
        },
        {
            "mesh": 8,
            "name": "b_wine_glass_2_125_glass"
        },
        {
            "mesh": 9,
            "name": "b_wine_glass_2_125_wine"
        }
    ],
    "samplers": [
        {},
        {},
        {},
        {},
        {}
    ],
    "scenes": [
        {
            "nodes": [
                0,
                1,
                2,
                3,
                4,
                5,
                6,
                9,
                12
            ],
            "name": "scene",
            "extras": {
                "ADOBE_background": {
                    "color": [
                        1,
                        1,
                        1
                    ],
                    "opacity": 1,
                    "texture": 4,
                    "textureAspect": 1.7777777910232545,
                    "transform": [
                        0.75,
                        0,
                        0,
                        0,
                        1,
                        0,
                        0,
                        0,
                        1
                    ]
                },
                "ADOBE_canvas": {
                    "height": 768,
                    "width": 1024
                }
            }
        }
    ],
    "textures": [
        {
            "name": "MATERIAL_CLOTH_BACKDROP_01_MAT::baseColor::sampler",
            "sampler": 0,
            "source": 0
        },
        {
            "name": "cardboard::baseColor::sampler",
            "sampler": 1,
            "source": 1
        },
        {
            "name": "roughness_image_texture_metallic_image_texture_2_texture",
            "sampler": 2,
            "source": 2
        },
        {
            "name": "cardboard::normal::sampler",
            "sampler": 3,
            "source": 3
        },
        {
            "name": "background_sampler",
            "sampler": 4,
            "source": 4
        }
    ],
    "scene": 0,
    "extensionsUsed": [
        "ADOBE_materials_thin_transparency"
    ]
}